<mxfile host="app.diagrams.net" modified="2023-03-20T06:27:07.448Z" agent="5.0 (Windows NT 10.0; Win64; x64) AppleWebKit/537.36 (KHTML, like Gecko) Chrome/110.0.0.0 Safari/537.36 Edg/110.0.1587.69" etag="mkkaU0JwhDsbBhzDsAqJ" version="21.0.8" type="github">
  <diagram name="第 1 页" id="_V076zVClLbivo9TQ8QG">
    <mxGraphModel dx="1004" dy="549" grid="1" gridSize="10" guides="1" tooltips="1" connect="1" arrows="1" fold="1" page="1" pageScale="1" pageWidth="827" pageHeight="1169" math="0" shadow="0">
      <root>
        <mxCell id="0" />
        <mxCell id="1" parent="0" />
        <mxCell id="5G_2wQipkVSy8Q2hGZWs-5" value="" style="rounded=1;whiteSpace=wrap;html=1;" vertex="1" parent="1">
          <mxGeometry x="130" y="100" width="120" height="60" as="geometry" />
        </mxCell>
      </root>
    </mxGraphModel>
  </diagram>
</mxfile>
